<?xml version="1.0" encoding="UTF-8"?>
<svg xmlns="http://www.w3.org/2000/svg" xmlns:xlink="http://www.w3.org/1999/xlink" width="32px" height="32px" viewBox="0 0 32 32" version="1.1">
<g id="surface1">
<path style=" stroke:none;fill-rule:nonzero;fill:rgb(0%,0%,0%);fill-opacity:1;" d="M 26.5 2.585938 C 25.867188 2.863281 25.164062 3.226562 24.78125 3.46875 C 24.507812 3.644531 24.375 3.679688 23.792969 3.738281 C 20.695312 4.070312 18.523438 5.949219 17.757812 8.980469 C 17.582031 9.664062 17.4375 10.710938 17.4375 11.273438 C 17.4375 12.054688 17.613281 12.125 19.007812 11.867188 C 20.554688 11.59375 21.980469 11.164062 23.101562 10.625 C 25.894531 9.300781 26.75 7.332031 25.554688 4.949219 C 25.394531 4.617188 25.261719 4.34375 25.269531 4.335938 C 25.457031 4.195312 26.425781 3.699219 26.84375 3.53125 C 27.648438 3.207031 27.855469 2.917969 27.554688 2.539062 C 27.382812 2.3125 27.09375 2.332031 26.5 2.585938 Z M 22.070312 5.605469 C 21.386719 6.292969 20.667969 7.15625 20.199219 7.855469 C 19.882812 8.332031 19.851562 8.613281 20.101562 8.804688 C 20.445312 9.074219 20.648438 8.96875 21.15625 8.25 C 21.84375 7.261719 22.726562 6.304688 23.71875 5.476562 C 24.4375 4.863281 24.386719 4.867188 24.644531 5.363281 C 25.269531 6.574219 25.230469 7.542969 24.519531 8.425781 C 23.898438 9.1875 22.457031 9.949219 20.664062 10.46875 C 19.96875 10.667969 18.511719 10.96875 18.46875 10.925781 C 18.40625 10.867188 18.625 9.574219 18.789062 9.011719 C 19.355469 7.054688 20.570312 5.707031 22.3125 5.085938 C 22.539062 5.007812 22.726562 4.9375 22.730469 4.9375 C 22.738281 4.9375 22.445312 5.238281 22.070312 5.605469 Z M 22.070312 5.605469 "/>
<path style=" stroke:none;fill-rule:nonzero;fill:rgb(0%,0%,0%);fill-opacity:1;" d="M 11.4375 12.105469 C 9.386719 12.300781 8.019531 12.664062 6.65625 13.363281 C 5.570312 13.925781 5.304688 14.269531 5.644531 14.664062 C 5.84375 14.894531 6.113281 14.886719 6.457031 14.644531 C 6.832031 14.367188 7.632812 13.980469 8.28125 13.75 C 9.460938 13.335938 10.605469 13.136719 12.21875 13.082031 C 13.273438 13.042969 13.34375 13.03125 13.480469 12.898438 C 13.679688 12.699219 13.664062 12.46875 13.445312 12.242188 L 13.261719 12.0625 L 12.457031 12.074219 C 12.019531 12.074219 11.554688 12.09375 11.4375 12.105469 Z M 11.4375 12.105469 "/>
<path style=" stroke:none;fill-rule:nonzero;fill:rgb(0%,0%,0%);fill-opacity:1;" d="M 25.875 12.125 C 25.101562 12.226562 24.195312 12.605469 23.492188 13.132812 C 22.976562 13.519531 22.867188 13.8125 23.15625 14.09375 C 23.386719 14.332031 23.601562 14.292969 24.085938 13.9375 C 24.992188 13.273438 25.90625 12.988281 26.730469 13.105469 C 27.664062 13.238281 28.394531 13.761719 28.769531 14.550781 C 28.949219 14.929688 28.96875 15.023438 28.96875 15.5625 C 28.960938 16.25 28.863281 16.585938 28.449219 17.320312 C 27.8125 18.425781 26.851562 19.273438 25.761719 19.667969 C 23.914062 20.351562 21.480469 20.261719 16.8125 19.34375 C 14.6875 18.925781 14.03125 18.851562 12.90625 18.894531 C 9.71875 19.03125 6.71875 20.488281 4.15625 23.132812 C 3.085938 24.238281 2.5 25.023438 2.5 25.351562 C 2.5 25.59375 2.738281 25.8125 3.007812 25.8125 C 3.195312 25.8125 3.210938 25.792969 4.011719 24.78125 C 4.226562 24.507812 4.6875 24 5.03125 23.65625 C 7.789062 20.894531 11.167969 19.5625 14.460938 19.9375 C 14.761719 19.976562 15.636719 20.132812 16.398438 20.28125 C 22.074219 21.425781 25.019531 21.382812 27.136719 20.117188 C 28.382812 19.382812 29.625 17.6875 29.898438 16.363281 C 30.03125 15.726562 30.023438 15.304688 29.875 14.726562 C 29.707031 14.054688 29.480469 13.667969 28.96875 13.148438 C 28.429688 12.605469 27.824219 12.289062 27.09375 12.15625 C 26.550781 12.0625 26.398438 12.054688 25.875 12.125 Z M 25.875 12.125 "/>
<path style=" stroke:none;fill-rule:nonzero;fill:rgb(0%,0%,0%);fill-opacity:1;" d="M 14.5 14.507812 C 10.132812 14.898438 6.429688 16.382812 3.695312 18.832031 C 2.929688 19.511719 2.5 20.039062 2.5 20.289062 C 2.5 20.542969 2.664062 20.738281 2.914062 20.789062 C 3.101562 20.824219 3.15625 20.78125 3.820312 20.113281 C 6.332031 17.605469 10.074219 15.957031 14.132812 15.5625 C 15.34375 15.445312 15.382812 15.4375 15.539062 15.28125 C 15.726562 15.09375 15.730469 14.863281 15.550781 14.664062 C 15.367188 14.460938 15.226562 14.4375 14.5 14.507812 Z M 14.5 14.507812 "/>
<path style=" stroke:none;fill-rule:nonzero;fill:rgb(0%,0%,0%);fill-opacity:1;" d="M 3.335938 15.617188 C 2.851562 15.917969 2 16.894531 2 17.15625 C 2 17.398438 2.230469 17.625 2.476562 17.625 C 2.667969 17.625 2.769531 17.550781 3.40625 16.898438 C 4.207031 16.101562 4.25 15.992188 3.945312 15.679688 C 3.730469 15.46875 3.605469 15.457031 3.335938 15.617188 Z M 3.335938 15.617188 "/>
<path style=" stroke:none;fill-rule:nonzero;fill:rgb(0%,0%,0%);fill-opacity:1;" d="M 14.105469 22.09375 C 11.925781 22.449219 10.09375 23.386719 8.5625 24.929688 C 7.925781 25.574219 7.4375 26.238281 7.4375 26.46875 C 7.4375 26.542969 7.492188 26.679688 7.570312 26.773438 C 7.667969 26.898438 7.75 26.9375 7.9375 26.9375 C 8.167969 26.9375 8.199219 26.914062 8.539062 26.449219 C 9.84375 24.679688 11.804688 23.488281 14.09375 23.082031 C 14.824219 22.949219 16.382812 22.957031 17.230469 23.085938 C 18.769531 23.324219 20.542969 23.917969 22.414062 24.820312 C 22.960938 25.082031 23.445312 25.523438 23.648438 25.96875 C 23.882812 26.449219 23.851562 27.125 23.5625 27.898438 C 23.445312 28.210938 23.394531 28.269531 23.125 28.40625 C 22.1875 28.882812 21.113281 28.644531 20.101562 27.75 C 19.789062 27.46875 19.636719 27.375 19.492188 27.375 C 19.25 27.375 19 27.617188 19 27.863281 C 19 28.230469 19.914062 29.023438 20.71875 29.355469 C 21.75 29.789062 22.980469 29.6875 23.914062 29.085938 C 24.195312 28.914062 24.257812 28.832031 24.429688 28.417969 C 24.726562 27.699219 24.832031 27.179688 24.792969 26.5625 C 24.761719 25.9375 24.644531 25.613281 24.273438 25.082031 C 23.804688 24.417969 23.382812 24.113281 22.269531 23.644531 C 20.167969 22.757812 19.175781 22.429688 17.851562 22.179688 C 16.9375 22.007812 14.917969 21.960938 14.105469 22.09375 Z M 14.105469 22.09375 "/>
</g>
</svg>
