<?xml version="1.0" encoding="UTF-8"?>
<svg xmlns="http://www.w3.org/2000/svg" xmlns:xlink="http://www.w3.org/1999/xlink" width="32px" height="32px" viewBox="0 0 32 32" version="1.1">
<g id="surface1">
<path style=" stroke:none;fill-rule:nonzero;fill:rgb(0%,0%,0%);fill-opacity:1;" d="M 11.664062 2.09375 C 11.523438 2.136719 11.355469 2.242188 11.273438 2.324219 C 11.03125 2.574219 9.21875 5.148438 8.15625 6.75 C 4.882812 11.695312 2.945312 15.480469 2.230469 18.3125 C 2.054688 19.019531 2.039062 19.1875 2.03125 20.09375 C 2.03125 21.242188 2.136719 21.949219 2.480469 23.03125 C 3.050781 24.824219 4.148438 26.46875 5.554688 27.636719 C 6.917969 28.769531 8.40625 29.476562 10.15625 29.824219 C 11.082031 30.011719 12.792969 30.023438 13.71875 29.851562 C 14.960938 29.625 16.414062 29.0625 17.355469 28.445312 C 17.835938 28.132812 18.03125 27.804688 17.980469 27.386719 C 17.925781 26.882812 17.5 26.5 17 26.5 C 16.78125 26.5 16.625 26.550781 16.335938 26.726562 C 14.875 27.613281 13.644531 27.96875 12 27.96875 C 10.925781 27.96875 10.480469 27.898438 9.523438 27.59375 C 8.269531 27.179688 7.351562 26.613281 6.367188 25.632812 C 5.679688 24.945312 5.238281 24.34375 4.863281 23.59375 C 4.125 22.132812 3.835938 20.363281 4.117188 19.023438 C 4.617188 16.625 6.585938 12.769531 9.84375 7.84375 C 11.070312 6 11.925781 4.78125 12 4.78125 C 12.117188 4.78125 14.507812 8.3125 15.71875 10.28125 C 17.699219 13.5 19.199219 16.519531 19.675781 18.238281 C 19.792969 18.648438 19.792969 18.6875 19.699219 18.6875 C 19.492188 18.6875 18.960938 18.386719 18.59375 18.070312 C 18.074219 17.617188 17.226562 17.207031 16.5625 17.085938 C 15.300781 16.851562 14.039062 17.199219 13.03125 18.0625 C 12.542969 18.488281 12.117188 18.679688 11.542969 18.742188 C 11.289062 18.773438 10.992188 18.84375 10.894531 18.90625 C 10.289062 19.261719 10.25 20.164062 10.824219 20.574219 C 11.117188 20.78125 11.707031 20.800781 12.382812 20.632812 C 13.0625 20.460938 13.585938 20.1875 14.136719 19.730469 C 14.789062 19.179688 15.15625 19.03125 15.8125 19.03125 C 16.460938 19.039062 16.832031 19.1875 17.4375 19.710938 C 18.445312 20.574219 19.800781 20.925781 21.09375 20.65625 C 21.679688 20.53125 22.429688 20.148438 23 19.679688 C 23.65625 19.144531 23.898438 19.042969 24.59375 19.039062 C 25.085938 19.03125 25.199219 19.050781 25.5 19.199219 C 25.695312 19.292969 26.03125 19.53125 26.25 19.71875 C 26.75 20.15625 27.507812 20.53125 28.125 20.664062 C 29.300781 20.90625 29.96875 20.582031 29.96875 19.761719 C 29.96875 19.132812 29.636719 18.835938 28.832031 18.742188 C 28.238281 18.679688 27.945312 18.542969 27.375 18.0625 C 26.585938 17.394531 25.550781 17 24.59375 17 C 23.761719 17 22.757812 17.335938 22.105469 17.832031 C 21.945312 17.960938 21.789062 18.0625 21.761719 18.0625 C 21.738281 18.0625 21.648438 17.84375 21.570312 17.574219 C 21.007812 15.632812 19.292969 12.226562 17.207031 8.882812 C 15.992188 6.9375 13.238281 2.898438 12.757812 2.351562 C 12.511719 2.070312 12.03125 1.957031 11.664062 2.09375 Z M 11.664062 2.09375 "/>
<path style=" stroke:none;fill-rule:nonzero;fill:rgb(0%,0%,0%);fill-opacity:1;" d="M 25.15625 3.09375 C 24.84375 3.207031 24.679688 3.394531 23.820312 4.617188 C 22.570312 6.398438 21.664062 8.03125 21.238281 9.257812 C 21.050781 9.792969 21.039062 9.90625 21.039062 10.59375 C 21.042969 11.21875 21.070312 11.417969 21.199219 11.824219 C 21.445312 12.570312 21.773438 13.101562 22.335938 13.664062 C 22.898438 14.226562 23.429688 14.554688 24.175781 14.800781 C 24.59375 14.9375 24.761719 14.960938 25.5 14.960938 C 26.238281 14.960938 26.40625 14.9375 26.824219 14.800781 C 27.570312 14.554688 28.101562 14.226562 28.664062 13.664062 C 29.226562 13.101562 29.554688 12.570312 29.800781 11.824219 C 29.929688 11.417969 29.957031 11.226562 29.960938 10.59375 C 29.960938 9.773438 29.882812 9.449219 29.40625 8.363281 C 28.75 6.875 26.492188 3.414062 26.019531 3.164062 C 25.738281 3.019531 25.429688 2.992188 25.15625 3.09375 Z M 26.105469 6.605469 C 27.074219 8.101562 27.644531 9.164062 27.875 9.929688 C 28.0625 10.539062 28.019531 10.992188 27.71875 11.601562 C 27.457031 12.136719 27.082031 12.5 26.511719 12.769531 C 26.132812 12.949219 26.039062 12.96875 25.5 12.96875 C 24.960938 12.96875 24.867188 12.949219 24.488281 12.769531 C 23.917969 12.5 23.542969 12.136719 23.28125 11.601562 C 22.980469 10.992188 22.9375 10.539062 23.125 9.929688 C 23.261719 9.460938 23.636719 8.667969 24.082031 7.90625 C 24.476562 7.226562 25.445312 5.75 25.5 5.75 C 25.523438 5.75 25.800781 6.136719 26.105469 6.605469 Z M 26.105469 6.605469 "/>
<path style=" stroke:none;fill-rule:nonzero;fill:rgb(0%,0%,0%);fill-opacity:1;" d="M 14.875 21.21875 C 14.304688 21.351562 13.550781 21.738281 13 22.195312 C 12.425781 22.667969 12.132812 22.804688 11.542969 22.867188 C 10.988281 22.929688 10.742188 23.050781 10.554688 23.355469 C 10.125 24.050781 10.644531 24.875 11.511719 24.875 C 12.386719 24.867188 13.3125 24.511719 14.125 23.851562 C 14.867188 23.25 15.085938 23.15625 15.78125 23.15625 C 16.449219 23.15625 16.84375 23.304688 17.355469 23.761719 C 18.96875 25.199219 21.324219 25.230469 22.9375 23.835938 C 23.554688 23.300781 23.90625 23.15625 24.59375 23.15625 C 25.28125 23.15625 25.632812 23.300781 26.25 23.835938 C 27.011719 24.5 28.113281 24.914062 28.980469 24.863281 C 29.25 24.84375 29.425781 24.800781 29.542969 24.710938 C 30.125 24.273438 30.144531 23.511719 29.585938 23.082031 C 29.425781 22.960938 29.261719 22.914062 28.875 22.867188 C 28.269531 22.800781 27.945312 22.648438 27.34375 22.15625 C 25.613281 20.730469 23.3125 20.800781 21.65625 22.320312 C 21.554688 22.414062 21.3125 22.570312 21.125 22.667969 C 20.824219 22.820312 20.707031 22.835938 20.21875 22.84375 C 19.550781 22.84375 19.179688 22.699219 18.625 22.226562 C 17.800781 21.511719 16.976562 21.1875 15.9375 21.148438 C 15.511719 21.136719 15.136719 21.164062 14.875 21.21875 Z M 14.875 21.21875 "/>
</g>
</svg>
