<?xml version="1.0" encoding="UTF-8"?>
<svg xmlns="http://www.w3.org/2000/svg" xmlns:xlink="http://www.w3.org/1999/xlink" width="32px" height="32px" viewBox="0 0 32 32" version="1.1">
<g id="surface1">
<path style=" stroke:none;fill-rule:nonzero;fill:rgb(0%,0%,0%);fill-opacity:1;" d="M 0.320312 0.0859375 C -0.0117188 0.273438 0.0078125 -0.699219 0 15.980469 C 0 27.882812 0.0195312 31.53125 0.0742188 31.65625 C 0.238281 32.011719 -0.0625 32 6.90625 32 C 13.875 32 13.574219 32.011719 13.738281 31.65625 C 13.832031 31.449219 13.832031 31.300781 13.738281 31.09375 C 13.574219 30.738281 13.835938 30.75 7.28125 30.75 L 1.25 30.75 L 1.25 27.875 L 1.675781 27.875 C 2.585938 27.867188 3.261719 27.632812 4.480469 26.867188 C 5.46875 26.25 5.898438 26.0625 6.425781 26.019531 C 7.082031 25.960938 7.570312 26.136719 8.5 26.757812 C 8.917969 27.03125 9.457031 27.355469 9.695312 27.476562 C 10.429688 27.851562 11.25 27.957031 12.074219 27.789062 C 12.632812 27.667969 13.023438 27.46875 14.039062 26.8125 C 15.667969 25.742188 16.332031 25.730469 17.882812 26.757812 C 18.292969 27.03125 18.832031 27.355469 19.070312 27.476562 C 19.804688 27.851562 20.625 27.957031 21.449219 27.789062 C 22.007812 27.667969 22.398438 27.46875 23.414062 26.804688 C 25.085938 25.710938 25.726562 25.726562 27.539062 26.875 C 28.667969 27.601562 29.429688 27.867188 30.332031 27.875 L 30.75 27.875 L 30.75 30.75 L 24.71875 30.75 C 18.164062 30.75 18.425781 30.738281 18.261719 31.09375 C 18.167969 31.300781 18.167969 31.449219 18.261719 31.65625 C 18.425781 32.011719 18.125 32 25.09375 32 C 32.0625 32 31.761719 32.011719 31.925781 31.65625 C 31.980469 31.539062 32 30.023438 32 25.554688 C 32 19.105469 32.011719 19.363281 31.65625 19.199219 C 31.5625 19.15625 31.1875 19.125 30.730469 19.125 C 29.632812 19.125 29.324219 19.019531 28.117188 18.261719 C 26.636719 17.332031 25.6875 17.082031 24.585938 17.34375 C 24.03125 17.476562 23.636719 17.667969 22.664062 18.304688 C 20.992188 19.398438 20.382812 19.398438 18.726562 18.3125 C 18.257812 18.007812 17.71875 17.6875 17.53125 17.601562 C 16.582031 17.148438 15.457031 17.144531 14.492188 17.585938 C 14.304688 17.667969 13.769531 17.992188 13.289062 18.304688 C 11.726562 19.332031 10.980469 19.375 9.667969 18.523438 L 9.125 18.175781 L 9.125 9.332031 C 9.125 -0.273438 9.144531 0.238281 8.78125 0.0742188 C 8.53125 -0.0390625 0.523438 -0.0234375 0.320312 0.0859375 Z M 7.875 13.09375 C 7.875 19.605469 7.867188 24.9375 7.855469 24.9375 C 7.851562 24.9375 7.644531 24.894531 7.40625 24.84375 C 6.261719 24.601562 5.34375 24.835938 3.9375 25.730469 C 2.832031 26.429688 2.34375 26.625 1.644531 26.625 L 1.25 26.625 L 1.25 24.125 L 2.03125 24.125 C 2.898438 24.125 3.113281 24.0625 3.238281 23.78125 C 3.335938 23.570312 3.332031 23.40625 3.226562 23.195312 C 3.085938 22.929688 2.886719 22.875 2.03125 22.875 L 1.25 22.875 L 1.25 20.375 L 2.96875 20.375 C 4.820312 20.375 4.945312 20.355469 5.101562 20.054688 C 5.269531 19.730469 5.148438 19.335938 4.84375 19.199219 C 4.730469 19.148438 4.164062 19.125 2.96875 19.125 L 1.25 19.125 L 1.25 16.625 L 2.03125 16.625 C 2.886719 16.625 3.085938 16.570312 3.226562 16.304688 C 3.335938 16.085938 3.335938 15.914062 3.226562 15.695312 C 3.085938 15.429688 2.886719 15.375 2.03125 15.375 L 1.25 15.375 L 1.25 12.875 L 2.96875 12.875 C 4.820312 12.875 4.945312 12.855469 5.101562 12.554688 C 5.207031 12.34375 5.210938 12.179688 5.113281 11.96875 C 4.96875 11.644531 4.84375 11.625 2.96875 11.625 L 1.25 11.625 L 1.25 9.125 L 2.03125 9.125 C 2.898438 9.125 3.113281 9.0625 3.238281 8.78125 C 3.332031 8.574219 3.332031 8.425781 3.238281 8.21875 C 3.113281 7.9375 2.898438 7.875 2.03125 7.875 L 1.25 7.875 L 1.25 5.375 L 2.96875 5.375 C 4.820312 5.375 4.945312 5.355469 5.101562 5.054688 C 5.207031 4.84375 5.210938 4.679688 5.113281 4.46875 C 4.96875 4.144531 4.84375 4.125 2.96875 4.125 L 1.25 4.125 L 1.25 1.25 L 7.875 1.25 Z M 16.707031 18.625 C 16.96875 18.707031 17.40625 18.945312 17.960938 19.3125 C 18.976562 19.96875 19.367188 20.167969 19.925781 20.289062 C 20.75 20.457031 21.570312 20.351562 22.304688 19.976562 C 22.542969 19.855469 23.082031 19.53125 23.5 19.257812 C 25.0625 18.21875 25.75 18.238281 27.539062 19.375 C 28.667969 20.101562 29.429688 20.367188 30.332031 20.375 L 30.75 20.375 L 30.75 22.875 L 30.363281 22.875 C 29.664062 22.875 29.207031 22.699219 28.117188 22.011719 C 26.636719 21.082031 25.6875 20.832031 24.585938 21.09375 C 24.03125 21.226562 23.636719 21.417969 22.664062 22.054688 C 20.992188 23.148438 20.382812 23.148438 18.726562 22.0625 C 18.257812 21.757812 17.71875 21.4375 17.53125 21.351562 C 16.582031 20.898438 15.457031 20.894531 14.492188 21.335938 C 14.304688 21.417969 13.769531 21.742188 13.289062 22.054688 C 11.726562 23.082031 10.980469 23.125 9.667969 22.273438 L 9.125 21.925781 L 9.125 19.6875 L 9.625 19.945312 C 10.445312 20.355469 11.226562 20.460938 12.082031 20.28125 C 12.605469 20.167969 13.144531 19.898438 14.117188 19.257812 C 15.25 18.511719 15.855469 18.363281 16.707031 18.625 Z M 16.707031 22.375 C 16.96875 22.457031 17.40625 22.695312 17.960938 23.0625 C 18.976562 23.71875 19.367188 23.917969 19.925781 24.039062 C 20.75 24.207031 21.570312 24.101562 22.304688 23.726562 C 22.542969 23.605469 23.082031 23.28125 23.5 23.007812 C 25.0625 21.96875 25.75 21.988281 27.539062 23.125 C 28.667969 23.851562 29.429688 24.117188 30.332031 24.125 L 30.75 24.125 L 30.75 26.625 L 30.363281 26.625 C 29.664062 26.625 29.207031 26.449219 28.117188 25.761719 C 26.636719 24.832031 25.6875 24.582031 24.585938 24.84375 C 24.03125 24.976562 23.636719 25.167969 22.664062 25.804688 C 20.992188 26.898438 20.382812 26.898438 18.726562 25.8125 C 18.257812 25.507812 17.71875 25.1875 17.53125 25.101562 C 16.582031 24.648438 15.457031 24.644531 14.492188 25.085938 C 14.304688 25.167969 13.769531 25.492188 13.289062 25.804688 C 11.726562 26.832031 10.980469 26.875 9.667969 26.023438 L 9.125 25.675781 L 9.125 23.4375 L 9.625 23.695312 C 10.445312 24.105469 11.226562 24.210938 12.082031 24.03125 C 12.605469 23.917969 13.144531 23.648438 14.117188 23.007812 C 15.25 22.261719 15.855469 22.113281 16.707031 22.375 Z M 16.707031 22.375 "/>
<path style=" stroke:none;fill-rule:nonzero;fill:rgb(0%,0%,0%);fill-opacity:1;" d="M 17.59375 0.0703125 C 17.398438 0.175781 11.8125 5.761719 11.710938 5.949219 C 11.601562 6.164062 11.601562 6.335938 11.710938 6.554688 C 11.867188 6.855469 12 6.875 13.75 6.875 L 15.375 6.875 L 15.375 10.5625 C 15.375 14.570312 15.367188 14.519531 15.71875 14.675781 C 15.832031 14.730469 16.460938 14.75 17.875 14.75 C 19.289062 14.75 19.917969 14.730469 20.03125 14.675781 C 20.382812 14.519531 20.375 14.570312 20.375 10.5625 L 20.375 6.875 L 22 6.875 C 23.769531 6.875 23.90625 6.851562 24.050781 6.53125 C 24.148438 6.320312 24.144531 6.15625 24.039062 5.949219 C 23.925781 5.742188 18.335938 0.167969 18.144531 0.0703125 C 17.976562 -0.0195312 17.757812 -0.0195312 17.59375 0.0703125 Z M 19.9375 3.59375 L 21.96875 5.625 L 20.800781 5.625 C 20.023438 5.625 19.574219 5.648438 19.46875 5.699219 C 19.117188 5.855469 19.125 5.804688 19.125 9.8125 L 19.125 13.5 L 16.625 13.5 L 16.625 9.8125 C 16.625 5.804688 16.632812 5.855469 16.28125 5.699219 C 16.175781 5.648438 15.726562 5.625 14.949219 5.625 L 13.78125 5.625 L 15.8125 3.59375 C 16.929688 2.476562 17.855469 1.5625 17.875 1.5625 C 17.894531 1.5625 18.820312 2.476562 19.9375 3.59375 Z M 19.9375 3.59375 "/>
<path style=" stroke:none;fill-rule:nonzero;fill:rgb(0%,0%,0%);fill-opacity:1;" d="M 15.695312 30.835938 C 15.148438 31.136719 15.382812 32 16 32 C 16.320312 32 16.625 31.695312 16.625 31.382812 C 16.625 30.914062 16.105469 30.605469 15.695312 30.835938 Z M 15.695312 30.835938 "/>
</g>
</svg>
