<?xml version="1.0" encoding="UTF-8"?>
<svg xmlns="http://www.w3.org/2000/svg" xmlns:xlink="http://www.w3.org/1999/xlink" width="32px" height="32px" viewBox="0 0 32 32" version="1.1">
<g id="surface1">
<path style=" stroke:none;fill-rule:nonzero;fill:rgb(0%,0%,0%);fill-opacity:1;" d="M 15.582031 0.105469 C 15.476562 0.167969 14.585938 0.949219 13.613281 1.851562 C 12.636719 2.742188 9.570312 5.570312 6.78125 8.125 C 0.0820312 14.273438 0.382812 13.992188 0.273438 14.195312 C 0.148438 14.445312 0.164062 14.867188 0.3125 15.113281 C 0.488281 15.394531 0.917969 15.585938 1.257812 15.53125 C 1.539062 15.480469 1.550781 15.46875 2.875 14.261719 L 3.78125 13.429688 L 3.84375 31.40625 L 3.980469 31.601562 C 4.289062 32.03125 3.320312 32 16 32 L 27.449219 32 L 27.695312 31.863281 C 27.851562 31.773438 27.980469 31.632812 28.0625 31.46875 C 28.1875 31.210938 28.1875 31.082031 28.1875 22.289062 L 28.1875 13.367188 L 29.28125 14.375 C 29.886719 14.925781 30.449219 15.40625 30.539062 15.4375 C 31.332031 15.742188 32.082031 14.929688 31.71875 14.167969 C 31.664062 14.050781 30.492188 12.929688 28.96875 11.542969 L 26.3125 9.113281 L 26.3125 1.875 L 26.5625 1.875 C 27.085938 1.875 27.5625 1.429688 27.5625 0.9375 C 27.5625 0.648438 27.335938 0.289062 27.0625 0.132812 C 26.832031 0 26.773438 0 23.492188 0 L 20.15625 0 L 19.914062 0.144531 C 19.070312 0.625 19.449219 1.875 20.4375 1.875 L 20.6875 1.875 L 20.6875 3.960938 L 20.488281 3.773438 C 18.820312 2.210938 16.5 0.15625 16.335938 0.0859375 C 16.054688 -0.03125 15.820312 -0.0234375 15.582031 0.105469 Z M 24.4375 4.636719 L 24.4375 7.398438 L 24.207031 7.179688 C 24.074219 7.0625 23.648438 6.667969 23.269531 6.3125 L 22.5625 5.667969 L 22.5625 1.875 L 24.4375 1.875 Z M 21.195312 6.96875 L 26.3125 11.65625 L 26.3125 30.125 L 5.6875 30.125 L 5.695312 20.886719 L 5.695312 11.65625 L 10.824219 6.949219 C 13.644531 4.363281 15.980469 2.257812 16.019531 2.269531 C 16.050781 2.273438 18.382812 4.394531 21.195312 6.96875 Z M 21.195312 6.96875 "/>
<path style=" stroke:none;fill-rule:nonzero;fill:rgb(0%,0%,0%);fill-opacity:1;" d="M 15.320312 7.726562 C 14.238281 8.011719 13.414062 8.945312 13.25 10.039062 C 13.210938 10.300781 13.1875 12.617188 13.1875 15.863281 L 13.1875 21.261719 L 12.90625 21.582031 C 12.324219 22.242188 11.980469 23.207031 11.980469 24.15625 C 11.980469 25.273438 12.355469 26.167969 13.15625 26.976562 C 13.738281 27.554688 14.417969 27.9375 15.15625 28.09375 C 16.917969 28.460938 18.726562 27.613281 19.550781 26.023438 C 19.914062 25.320312 20.019531 24.820312 19.988281 23.96875 C 19.945312 22.96875 19.636719 22.1875 19.019531 21.492188 L 18.8125 21.269531 L 18.800781 15.488281 L 18.78125 9.710938 L 18.550781 9.242188 C 17.929688 8 16.605469 7.375 15.320312 7.726562 Z M 16.4375 9.613281 C 16.554688 9.667969 16.71875 9.8125 16.792969 9.929688 C 16.9375 10.144531 16.9375 10.148438 16.9375 12.601562 L 16.9375 15.0625 L 15.0625 15.0625 L 15.0625 12.761719 C 15.0625 11.5 15.085938 10.363281 15.117188 10.230469 C 15.257812 9.644531 15.898438 9.34375 16.4375 9.613281 Z M 16.9375 19.324219 C 16.9375 20.84375 16.960938 21.804688 17.007812 21.960938 C 17.050781 22.117188 17.195312 22.324219 17.40625 22.539062 C 17.59375 22.71875 17.824219 23.019531 17.917969 23.199219 C 18.074219 23.5 18.09375 23.59375 18.09375 24.15625 C 18.09375 24.71875 18.074219 24.8125 17.917969 25.113281 C 16.855469 27.132812 13.84375 26.40625 13.863281 24.132812 C 13.863281 23.5 14.054688 23.0625 14.53125 22.601562 C 14.742188 22.386719 14.949219 22.15625 14.992188 22.082031 C 15.042969 21.988281 15.0625 21.207031 15.0625 19.445312 L 15.0625 16.9375 L 16.9375 16.9375 Z M 16.9375 19.324219 "/>
<path style=" stroke:none;fill-rule:nonzero;fill:rgb(0%,0%,0%);fill-opacity:1;" d="M 9.925781 11.445312 C 9.65625 11.582031 9.4375 11.949219 9.4375 12.25 C 9.4375 12.5625 9.65625 12.917969 9.9375 13.0625 C 10.136719 13.164062 10.304688 13.1875 10.84375 13.1875 C 11.382812 13.1875 11.550781 13.164062 11.75 13.0625 C 12.03125 12.917969 12.25 12.5625 12.25 12.25 C 12.25 11.9375 12.03125 11.582031 11.75 11.4375 C 11.398438 11.257812 10.269531 11.261719 9.925781 11.445312 Z M 9.925781 11.445312 "/>
<path style=" stroke:none;fill-rule:nonzero;fill:rgb(0%,0%,0%);fill-opacity:1;" d="M 20.238281 11.445312 C 19.96875 11.582031 19.75 11.949219 19.75 12.25 C 19.75 12.5625 19.96875 12.917969 20.25 13.0625 C 20.449219 13.164062 20.617188 13.1875 21.15625 13.1875 C 21.695312 13.1875 21.863281 13.164062 22.0625 13.0625 C 22.34375 12.917969 22.5625 12.5625 22.5625 12.25 C 22.5625 11.9375 22.34375 11.582031 22.0625 11.4375 C 21.710938 11.257812 20.582031 11.261719 20.238281 11.445312 Z M 20.238281 11.445312 "/>
<path style=" stroke:none;fill-rule:nonzero;fill:rgb(0%,0%,0%);fill-opacity:1;" d="M 9.925781 15.195312 C 9.65625 15.332031 9.4375 15.699219 9.4375 16 C 9.4375 16.3125 9.65625 16.667969 9.9375 16.8125 C 10.136719 16.914062 10.304688 16.9375 10.84375 16.9375 C 11.382812 16.9375 11.550781 16.914062 11.75 16.8125 C 12.03125 16.667969 12.25 16.3125 12.25 16 C 12.25 15.6875 12.03125 15.332031 11.75 15.1875 C 11.398438 15.007812 10.269531 15.011719 9.925781 15.195312 Z M 9.925781 15.195312 "/>
<path style=" stroke:none;fill-rule:nonzero;fill:rgb(0%,0%,0%);fill-opacity:1;" d="M 20.238281 15.195312 C 19.96875 15.332031 19.75 15.699219 19.75 16 C 19.75 16.3125 19.96875 16.667969 20.25 16.8125 C 20.449219 16.914062 20.617188 16.9375 21.15625 16.9375 C 21.695312 16.9375 21.863281 16.914062 22.0625 16.8125 C 22.34375 16.667969 22.5625 16.3125 22.5625 16 C 22.5625 15.6875 22.34375 15.332031 22.0625 15.1875 C 21.710938 15.007812 20.582031 15.011719 20.238281 15.195312 Z M 20.238281 15.195312 "/>
<path style=" stroke:none;fill-rule:nonzero;fill:rgb(0%,0%,0%);fill-opacity:1;" d="M 9.925781 18.945312 C 9.65625 19.082031 9.4375 19.449219 9.4375 19.75 C 9.4375 20.0625 9.65625 20.417969 9.9375 20.5625 C 10.136719 20.664062 10.304688 20.6875 10.84375 20.6875 C 11.382812 20.6875 11.550781 20.664062 11.75 20.5625 C 12.03125 20.417969 12.25 20.0625 12.25 19.75 C 12.25 19.4375 12.03125 19.082031 11.75 18.9375 C 11.398438 18.757812 10.269531 18.761719 9.925781 18.945312 Z M 9.925781 18.945312 "/>
<path style=" stroke:none;fill-rule:nonzero;fill:rgb(0%,0%,0%);fill-opacity:1;" d="M 20.238281 18.945312 C 19.96875 19.082031 19.75 19.449219 19.75 19.75 C 19.75 20.0625 19.96875 20.417969 20.25 20.5625 C 20.449219 20.664062 20.617188 20.6875 21.15625 20.6875 C 21.695312 20.6875 21.863281 20.664062 22.0625 20.5625 C 22.34375 20.417969 22.5625 20.0625 22.5625 19.75 C 22.5625 19.4375 22.34375 19.082031 22.0625 18.9375 C 21.710938 18.757812 20.582031 18.761719 20.238281 18.945312 Z M 20.238281 18.945312 "/>
</g>
</svg>
